<svg width="1345" height="1345" viewBox="0 0 1345 1345" fill="none" xmlns="http://www.w3.org/2000/svg">
<path d="M672.5 0.66711C700.718 0.667186 729.048 8.19945 754.343 23.1515L1178.51 274.977C1229.21 304.993 1260.35 360.642 1260.35 420.675V924.438C1260.35 984.471 1229.1 1040.12 1178.51 1070.14L754.231 1321.96C728.936 1336.91 700.606 1344.45 672.388 1344.45C644.057 1344.45 615.839 1337.03 590.544 1321.96L166.376 1070.14C115.674 1040.12 84.5333 984.583 84.5333 924.438V420.787C84.5335 360.642 115.787 305.106 166.376 275.089L590.656 23.2638C615.951 8.19926 644.282 0.66711 672.5 0.66711Z" fill="#FEFFFF"/>
<path d="M1178.51 274.977L754.343 23.1515C729.048 8.19945 700.718 0.667186 672.5 0.66711C644.282 0.66711 615.951 8.19926 590.656 23.2638L166.376 275.089C115.787 305.106 84.5335 360.642 84.5333 420.787V924.438C84.5333 984.583 115.674 1040.12 166.376 1070.14L590.544 1321.96C615.839 1337.03 644.057 1344.45 672.388 1344.45C700.606 1344.45 728.936 1336.91 754.231 1321.96L1178.51 1070.14C1229.1 1040.12 1260.35 984.471 1260.35 924.438V420.675C1260.35 360.642 1229.21 304.993 1178.51 274.977ZM850.014 1061.37L850.688 1097.57C850.688 1101.95 847.878 1106.9 844.505 1108.7L823.033 1121.06C819.66 1122.75 816.737 1120.73 816.737 1116.34L816.4 1080.7C798.075 1088.35 779.413 1090.15 767.609 1085.43C765.36 1084.53 764.348 1081.27 765.248 1077.44L773.005 1044.73C773.679 1042.14 775.028 1039.56 776.827 1037.98C777.502 1037.31 778.176 1036.86 778.851 1036.52C780.087 1035.85 781.324 1035.74 782.336 1036.19C795.152 1040.46 811.453 1038.43 827.192 1030.56C847.203 1020.45 860.582 999.985 860.357 979.749C860.132 961.312 850.239 953.78 826.068 953.555C795.265 953.667 766.484 947.597 766.035 902.178C765.697 864.854 785.034 825.956 815.838 801.448L815.5 764.911C815.5 760.414 818.198 755.468 821.684 753.669L842.482 740.403C845.854 738.717 848.777 740.853 848.777 745.237L849.115 781.774C864.404 775.704 877.67 774.017 889.699 776.828C892.285 777.502 893.521 781.1 892.397 785.259L884.303 817.637C883.628 820.11 882.279 822.583 880.593 824.157C879.966 824.789 879.245 825.32 878.457 825.731C877.332 826.293 876.321 826.406 875.309 826.293C869.8 825.057 856.759 822.246 836.186 832.589C814.601 843.494 807.069 862.268 807.181 876.209C807.406 892.847 815.838 897.906 845.292 898.356C884.527 899.03 901.391 916.118 901.84 955.579C902.403 994.252 881.717 1035.96 850.014 1061.37ZM1146.13 381.215L744.787 629.105C694.759 658.335 657.885 691.162 657.772 751.533V1246.08C657.772 1282.16 672.387 1305.55 694.759 1312.41C687.452 1313.64 679.92 1314.54 672.5 1314.54C649.004 1314.54 625.845 1308.13 605.496 1296.1L181.329 1044.28C139.845 1019.66 114.1 973.678 114.1 924.325V420.675C114.1 371.322 139.845 325.341 181.329 300.721L605.609 48.8961C625.957 36.867 649.116 30.4589 672.612 30.4589C696.108 30.4589 719.267 36.867 739.616 48.8961L1163.9 300.721C1198.86 321.519 1222.47 357.382 1229.1 397.741C1214.82 367.725 1183.12 359.63 1146.13 381.215Z" fill="#293138"/>
<path d="M1178.51 274.977L754.343 23.1515C729.048 8.19945 700.718 0.667186 672.5 0.66711C644.282 0.66711 615.951 8.19926 590.656 23.2638L166.376 275.089C115.787 305.106 84.5335 360.642 84.5333 420.787V924.438C84.5333 984.583 115.674 1040.12 166.376 1070.14L590.544 1321.96C615.839 1337.03 644.057 1344.45 672.388 1344.45C700.606 1344.45 728.936 1336.91 754.231 1321.96L1178.51 1070.14C1229.1 1040.12 1260.35 984.471 1260.35 924.438V420.675C1260.35 360.642 1229.21 304.993 1178.51 274.977ZM850.014 1061.37L850.688 1097.57C850.688 1101.95 847.878 1106.9 844.505 1108.7L823.033 1121.06C819.66 1122.75 816.737 1120.73 816.737 1116.34L816.4 1080.7C798.075 1088.35 779.413 1090.15 767.609 1085.43C765.36 1084.53 764.348 1081.27 765.248 1077.44L773.005 1044.73C773.679 1042.14 775.028 1039.56 776.827 1037.98C777.502 1037.31 778.176 1036.86 778.851 1036.52C780.087 1035.85 781.324 1035.74 782.336 1036.19C795.152 1040.46 811.453 1038.43 827.192 1030.56C847.203 1020.45 860.582 999.985 860.357 979.749C860.132 961.312 850.239 953.78 826.068 953.555C795.265 953.667 766.484 947.597 766.035 902.178C765.697 864.854 785.034 825.956 815.838 801.448L815.5 764.911C815.5 760.414 818.198 755.468 821.684 753.669L842.482 740.403C845.854 738.717 848.777 740.853 848.777 745.237L849.115 781.774C864.404 775.704 877.67 774.017 889.699 776.828C892.285 777.502 893.521 781.1 892.397 785.259L884.303 817.637C883.628 820.11 882.279 822.583 880.593 824.157C879.966 824.789 879.245 825.32 878.457 825.731C877.332 826.293 876.321 826.406 875.309 826.293C869.8 825.057 856.759 822.246 836.186 832.589C814.601 843.494 807.069 862.268 807.181 876.209C807.406 892.847 815.838 897.906 845.292 898.356C884.527 899.03 901.391 916.118 901.84 955.579C902.403 994.252 881.717 1035.96 850.014 1061.37ZM1146.13 381.215L744.787 629.105C694.759 658.335 657.885 691.162 657.772 751.533V1246.08C657.772 1282.16 672.387 1305.55 694.759 1312.41C687.452 1313.64 679.92 1314.54 672.5 1314.54C649.004 1314.54 625.845 1308.13 605.496 1296.1L181.329 1044.28C139.845 1019.66 114.1 973.678 114.1 924.325V420.675C114.1 371.322 139.845 325.341 181.329 300.721L605.609 48.8961C625.957 36.867 649.116 30.4589 672.612 30.4589C696.108 30.4589 719.267 36.867 739.616 48.8961L1163.9 300.721C1198.86 321.519 1222.47 357.382 1229.1 397.741C1214.82 367.725 1183.12 359.63 1146.13 381.215Z" fill="black" fill-opacity="0.2"/>
<path d="M1067.33 973.004L961.649 1036.18C958.839 1037.87 956.815 1039.67 956.815 1043.04V1070.7C956.815 1074.07 959.063 1075.53 961.874 1073.85L1069.12 1008.64C1071.94 1006.96 1072.38 1003.92 1072.38 1000.55V976.152C1072.38 972.779 1070.14 971.43 1067.33 973.004Z" fill="#4FA847"/>
</svg>
