<svg width="1468" height="1468" viewBox="0 0 1468 1468" fill="none" xmlns="http://www.w3.org/2000/svg">
<circle cx="733.5" cy="768.5" r="665.5" fill="#F0F6FC"/>
<path fill-rule="evenodd" clip-rule="evenodd" d="M734 58.5251C351.551 58.5251 41.4248 368.583 41.4248 751.1C41.4248 1057.11 239.869 1316.7 515.05 1408.29C549.651 1414.72 562.358 1393.27 562.358 1374.98C562.358 1358.46 561.716 1303.91 561.418 1246.03C368.743 1287.93 328.086 1164.32 328.086 1164.32C296.582 1084.27 251.188 1062.98 251.188 1062.98C188.34 1020 255.925 1020.89 255.925 1020.89C325.46 1025.77 362.091 1092.26 362.091 1092.26C423.862 1198.12 524.11 1167.52 563.631 1149.83C569.847 1105.07 587.796 1074.51 607.603 1057.21C453.772 1039.72 292.051 980.326 292.051 714.951C292.051 639.337 319.118 577.555 363.421 529.042C356.219 511.61 332.513 441.169 370.119 345.771C370.119 345.771 428.266 327.158 560.615 416.763C615.872 401.406 675.131 393.688 734 393.424C792.834 393.688 852.128 401.383 907.487 416.74C1039.68 327.135 1097.75 345.749 1097.75 345.749C1135.45 441.134 1111.75 511.587 1104.55 529.019C1148.96 577.532 1175.83 639.314 1175.83 714.928C1175.83 980.934 1013.81 1039.49 859.594 1056.65C884.447 1078.14 906.581 1120.3 906.581 1184.91C906.581 1277.57 905.779 1352.15 905.779 1374.97C905.779 1393.4 918.257 1414.99 953.351 1408.19C1228.37 1316.51 1426.59 1056.99 1426.59 751.1C1426.57 368.606 1116.48 58.5251 734 58.5251Z" fill="#181616"/>
<path d="M303.738 1052.9C302.213 1056.34 296.8 1057.37 291.868 1055.02C286.822 1052.77 284.012 1048.08 285.641 1044.63C287.131 1041.08 292.556 1040.1 297.568 1042.47C302.614 1044.73 305.481 1049.47 303.727 1052.91L303.738 1052.9ZM331.791 1084.2C328.499 1087.26 322.042 1085.84 317.661 1080.99C313.12 1076.17 312.271 1069.71 315.631 1066.61C319.049 1063.55 325.311 1065 329.853 1069.82C334.371 1074.7 335.266 1081.1 331.802 1084.21L331.791 1084.2ZM359.109 1124.08C354.866 1127.03 347.916 1124.27 343.627 1118.11C339.383 1111.94 339.383 1104.54 343.741 1101.6C348.019 1098.64 354.866 1101.31 359.224 1107.41C363.445 1113.66 363.445 1121.07 359.109 1124.08ZM396.509 1162.62C392.724 1166.81 384.627 1165.68 378.709 1159.98C372.665 1154.4 370.98 1146.45 374.776 1142.28C378.629 1138.08 386.761 1139.25 392.713 1144.91C398.757 1150.49 400.58 1158.45 396.532 1162.61L396.509 1162.62ZM448.118 1185C446.432 1190.42 438.657 1192.89 430.8 1190.57C422.967 1188.2 417.841 1181.85 419.446 1176.37C421.052 1170.9 428.885 1168.34 436.787 1170.81C444.62 1173.17 449.747 1179.48 448.118 1185ZM504.808 1189.14C505.003 1194.85 498.351 1199.57 490.128 1199.69C481.836 1199.88 475.127 1195.25 475.047 1189.63C475.047 1183.86 481.561 1179.19 489.842 1179.03C498.065 1178.88 504.82 1183.47 504.82 1189.13L504.808 1189.14ZM557.542 1180.17C558.528 1185.73 552.805 1191.45 544.628 1192.98C536.6 1194.47 529.145 1191.01 528.113 1185.49C527.127 1179.78 532.953 1174.06 540.981 1172.58C549.169 1171.17 556.509 1174.51 557.542 1180.17Z" fill="#181616"/>
</svg>
