<?xml version="1.0" encoding="UTF-8" standalone="no"?>
<svg
   version="1.1"
   width="214px"
   height="212px"
   style="shape-rendering:geometricPrecision; text-rendering:geometricPrecision; image-rendering:optimizeQuality; fill-rule:evenodd; clip-rule:evenodd"
   id="svg7"
   sodipodi:docname="soapui-supported-by-smartbear-logo-vector.svg"
   inkscape:version="1.4.2 (f4327f4, 2025-05-13)"
   xmlns:inkscape="http://www.inkscape.org/namespaces/inkscape"
   xmlns:sodipodi="http://sodipodi.sourceforge.net/DTD/sodipodi-0.dtd"
   xmlns="http://www.w3.org/2000/svg"
   xmlns:svg="http://www.w3.org/2000/svg">
  <defs
     id="defs7" />
  <sodipodi:namedview
     id="namedview7"
     pagecolor="#ffffff"
     bordercolor="#111111"
     borderopacity="1"
     inkscape:showpageshadow="0"
     inkscape:pageopacity="0"
     inkscape:pagecheckerboard="1"
     inkscape:deskcolor="#d1d1d1"
     inkscape:zoom="5.5283019"
     inkscape:cx="72.807167"
     inkscape:cy="66.204778"
     inkscape:window-width="2400"
     inkscape:window-height="1421"
     inkscape:window-x="-9"
     inkscape:window-y="-9"
     inkscape:window-maximized="1"
     inkscape:current-layer="g3" />
  <g
     id="g2" />
  <g
     id="g3">
    <path
       style="opacity:1"
       fill="#1c3949"
       d="m 97.5,-0.5 h 17 c 17.758,2.31018 34.425,8.14351 50,17.5 41.941,31.4894 55.775,72.656 41.5,123.5 -16.98,41.153 -47.48,64.819 -91.5,71 h -17 C 77.3428,209.167 59.0094,202 42.5,190 10.152,162.968 -3.34804,128.468 2,86.5 14.6648,36.3305 46.4981,7.33053 97.5,-0.5 Z"
       id="path3"
       sodipodi:nodetypes="ccccccccc" />
  </g>
  <g
     id="g4">
    <path
       style="opacity:1"
       fill="#f9da01"
       d="M 98.5,9.5 C 143.733,8.84991 175.9,28.8499 195,69.5C 210.883,118.149 198.05,157.316 156.5,187C 111.784,210.272 71.2839,204.438 35,169.5C 8.01161,135.589 3.67828,98.9228 22,59.5C 39.3768,30.3955 64.8768,13.7289 98.5,9.5 Z"
       id="path4" />
  </g>
  <g
     id="g5">
    <path
       style="opacity:1"
       fill="#1a3848"
       d="M 122.5,36.5 C 129.358,39.7605 136.358,42.7605 143.5,45.5C 144.667,50.5 145.833,55.5 147,60.5C 148.833,62.3333 150.667,64.1667 152.5,66C 157.488,66.6896 162.321,67.8563 167,69.5C 169.704,76.4056 172.538,83.239 175.5,90C 164.833,101 164.833,112 175.5,123C 172.371,129.425 169.371,135.925 166.5,142.5C 162.004,144.197 157.337,145.363 152.5,146C 145.98,151.19 142.98,158.024 143.5,166.5C 136.31,169.007 129.144,171.674 122,174.5C 118.177,172.015 114.344,169.515 110.5,167C 107.167,166.333 103.833,166.333 100.5,167C 96.7496,170.704 92.4163,173.038 87.5,174C 81.2582,171.295 75.0916,168.462 69,165.5C 67.7458,161.23 66.7458,156.896 66,152.5C 64.5422,150.04 62.7089,147.873 60.5,146C 55.8614,144.872 51.1947,143.872 46.5,143C 42.9753,136.278 39.9753,129.278 37.5,122C 39.3717,117.757 41.8717,113.923 45,110.5C 45.6667,107.167 45.6667,103.833 45,100.5C 41.8717,97.0768 39.3717,93.2435 37.5,89C 40.069,82.4597 42.7356,75.9597 45.5,69.5C 50.3787,67.7908 55.3787,66.2908 60.5,65C 66.2062,60.2391 69.0395,54.0725 69,46.5C 75.6342,42.7302 82.6342,39.7302 90,37.5C 94.39,39.5416 98.5567,42.0416 102.5,45C 105.167,45.6667 107.833,45.6667 110.5,45C 114.742,42.3904 118.742,39.5571 122.5,36.5 Z"
       id="path5" />
  </g>
  <g
     id="g6">
    <path
       style="opacity:1"
       fill="#f7d802"
       d="M 87.5,48.5 C 91.2171,49.5274 94.5505,51.3607 97.5,54C 103.5,54.6667 109.5,54.6667 115.5,54C 118.095,51.7868 120.928,49.9534 124,48.5C 127.555,49.6945 131.055,51.0278 134.5,52.5C 135.879,56.7644 137.045,61.0978 138,65.5C 140.833,68.3333 143.667,71.1667 146.5,74C 150.719,75.5921 155.053,76.7587 159.5,77.5C 161.358,81.0727 163.025,84.7393 164.5,88.5C 157.809,95.9083 155.642,104.575 158,114.5C 160.351,117.205 162.184,120.205 163.5,123.5C 162.616,126.935 161.449,130.268 160,133.5C 156.014,135.142 151.847,136.308 147.5,137C 144,140.5 140.5,144 137,147.5C 136.441,151.186 135.774,154.853 135,158.5C 131.519,160.55 127.852,162.217 124,163.5C 120.928,162.047 118.095,160.213 115.5,158C 109.5,157.333 103.5,157.333 97.5,158C 94.9054,160.213 92.0721,162.047 89,163.5C 84.5604,162.366 80.7271,160.366 77.5,157.5C 76.7304,153.819 75.8971,150.152 75,146.5C 71.8333,143.333 68.6667,140.167 65.5,137C 61.3879,136.378 57.3879,135.378 53.5,134C 50.9813,130.153 49.8147,125.986 50,121.5C 51.6667,119.167 53.3333,116.833 55,114.5C 55.6667,108.833 55.6667,103.167 55,97.5C 47.9678,90.9255 47.8012,84.0922 54.5,77C 58.1864,76.4412 61.853,75.7745 65.5,75C 68.6667,71.8333 71.8333,68.6667 75,65.5C 76.1658,61.1786 77.3325,56.8453 78.5,52.5C 81.7081,51.391 84.7081,50.0577 87.5,48.5 Z"
       id="path6" />
  </g>
  <g
     id="g7">
    <path
       style="opacity:1"
       fill="#193747"
       d="M 109.5,66.5 C 112.589,67.7389 115.589,69.2389 118.5,71C 113.293,80.5809 107.96,90.0809 102.5,99.5C 109.44,101.652 116.44,103.652 123.5,105.5C 117.917,115.002 112.084,124.335 106,133.5C 105.333,134.5 105.333,135.5 106,136.5C 130.064,131.707 138.064,117.707 130,94.5C 128.357,92.0232 126.524,89.6898 124.5,87.5C 127.391,79.4305 131.225,78.7638 136,85.5C 145.964,100.768 145.964,116.101 136,131.5C 122.187,146.421 106.021,149.587 87.5,141C 69.9134,128.904 64.7467,112.738 72,92.5C 73.776,89.0589 75.9426,85.8922 78.5,83C 81.6064,84.0651 84.273,86.0651 86.5,89C 76.4075,101.047 75.9075,113.547 85,126.5C 87.7658,129.317 90.9325,131.151 94.5,132C 99.0823,125.504 103.416,118.837 107.5,112C 100.9,110.11 94.2338,108.277 87.5,106.5C 94.8456,93.1395 102.179,79.8062 109.5,66.5 Z"
       id="path7" />
  </g>
</svg>
