<svg width="2560" height="2560" viewBox="0 0 2560 2560" fill="none" xmlns="http://www.w3.org/2000/svg">
<path d="M847.35 950.059C850.432 949.479 997.772 949.18 1231.35 949.28L1610.35 949.443L1617.89 951.642C1640.64 958.281 1659.33 969.789 1675.16 986.913C1709.29 1023.82 1717.51 1075.23 1696.2 1118.49C1682.37 1146.55 1655.05 1169.85 1623.75 1180.28C1604.58 1186.67 1613.38 1186.29 1478.58 1186.64L1355.81 1186.96L1356.14 1438.18C1356.44 1666.71 1356.63 1690.58 1358.16 1702.4C1370 1793.73 1397.84 1846.63 1447.15 1871.53C1458.34 1877.18 1470.05 1881.07 1485.8 1884.37C1510.97 1889.65 1528.34 1889.44 1561.2 1883.47C1685.06 1860.95 1693.75 1859.54 1707.85 1859.62C1724.74 1859.73 1736.62 1862.52 1751.57 1869.91C1780.61 1884.25 1800.7 1908.28 1809.08 1938.73C1810.84 1945.1 1811.21 1949.29 1811.25 1963.4C1811.27 1973.66 1810.78 1982.78 1810.01 1986.4C1803.62 2016.23 1786.74 2042.2 1762.67 2059.25C1750.62 2067.78 1716.09 2083.54 1687.04 2093.75C1616.69 2118.49 1551.79 2127.97 1462.35 2126.58C1369.59 2125.14 1311.26 2112.75 1252.27 2081.95C1171.02 2039.54 1118.85 1976.98 1088.95 1886.11C1073.99 1840.65 1065.5 1794.14 1059.69 1725.9C1058.88 1716.33 1058.43 1635.6 1058.15 1448.15L1057.77 1183.9L955.058 1183.9C843.915 1183.9 843.173 1183.86 826.571 1178.44C798.024 1169.13 772.875 1146.63 759.366 1118.33C738.035 1073.64 747.097 1023.83 783.45 985.952C801.758 966.878 823.804 954.494 847.35 950.059Z" fill="white"/>
<path d="M1190.85 433.542C1197.99 432.495 1225.15 433.056 1234.72 434.45C1247.81 436.355 1260.65 439.674 1273.53 444.485C1332.15 466.375 1377.62 518.726 1391.21 579.982C1397.12 606.653 1397.27 629.866 1391.68 655.903C1383.75 692.854 1361.41 730.784 1333.07 755.442C1276.77 804.427 1196.78 815.391 1129.85 783.3C1063.51 751.488 1021.2 682.075 1024.17 609.903C1025.33 581.842 1031.23 559.639 1044.4 533.903C1065.01 493.605 1100.01 462.119 1143.34 444.908C1152.62 441.221 1170.92 436.372 1180.85 434.968C1184.98 434.385 1189.48 433.744 1190.85 433.542Z" fill="white"/>
<path fill-rule="evenodd" clip-rule="evenodd" d="M1231.22 0.905726C1068.83 7.02573 910.208 43.6287 761.221 109.362C736.958 120.067 682.318 147.253 659.721 159.863C575.537 206.84 500.786 260.012 427.221 325.243C405.975 344.082 348.548 401.161 330.068 421.806C248.827 512.569 186.688 603.777 133.858 709.806C90.436 796.955 59.004 882.674 36.24 976.025C-8.44197 1159.26 -11.86 1352.56 26.285 1539.01C44.365 1627.39 72.098 1714.04 109.277 1798.31C119.982 1822.57 147.168 1877.21 159.778 1899.81C206.755 1983.99 259.927 2058.74 325.158 2132.31C343.997 2153.55 401.076 2210.98 421.721 2229.46C512.45 2310.67 603.731 2372.86 709.721 2425.67C796.87 2469.09 882.589 2500.52 975.94 2523.29C1173.92 2571.56 1384.89 2571.58 1583.22 2523.33C1677.48 2500.4 1762.89 2469.06 1850.72 2425.19C1922.71 2389.23 1984.03 2351.4 2047.22 2303.97C2098.03 2265.83 2135.03 2233.59 2183.31 2185.36C2224.67 2144.04 2248.93 2117.13 2280.22 2077.86C2358.53 1979.59 2421.74 1871.13 2468.21 1755.31C2561.02 1523.97 2583.69 1267.59 2533.16 1020.6C2515.11 932.36 2487.23 845.268 2450.17 761.306C2439.45 737.016 2412.26 682.374 2399.66 659.806C2352.69 575.622 2299.51 500.871 2234.28 427.306C2215.44 406.06 2158.37 348.633 2137.72 330.153C2046.99 248.94 1955.7 186.746 1849.72 133.944C1805.28 111.802 1771.66 97.1167 1727.9 80.7257C1570.84 21.9077 1400.47 -5.47227 1231.22 0.905726ZM1234.59 434.353C1247.68 436.258 1260.52 439.577 1273.4 444.388C1332.03 466.278 1377.49 518.629 1391.08 579.885C1396.99 606.556 1397.14 629.769 1391.55 655.806C1383.62 692.757 1361.29 730.687 1332.95 755.345C1276.64 804.33 1196.65 815.295 1129.72 783.203C1063.38 751.391 1021.07 681.978 1024.04 609.806C1025.2 581.745 1031.11 559.542 1044.27 533.806C1064.88 493.508 1099.88 462.022 1143.21 444.811C1152.49 441.124 1170.79 436.276 1180.72 434.872C1184.85 434.289 1189.35 433.647 1190.72 433.445C1197.86 432.398 1225.02 432.959 1234.59 434.353ZM1617.76 951.545C1640.51 958.184 1659.2 969.692 1675.03 986.816C1709.16 1023.73 1717.38 1075.14 1696.07 1118.39C1682.24 1146.45 1654.92 1169.75 1623.62 1180.19C1604.45 1186.57 1613.25 1186.19 1478.45 1186.54L1355.68 1186.86L1356.01 1438.08C1356.32 1666.61 1356.5 1690.48 1358.03 1702.31C1369.87 1793.63 1397.71 1846.54 1447.03 1871.44C1458.21 1877.08 1469.92 1880.97 1485.67 1884.27C1510.85 1889.55 1528.21 1889.34 1561.07 1883.37C1684.93 1860.85 1693.62 1859.44 1707.72 1859.53C1724.61 1859.63 1736.49 1862.42 1751.44 1869.81C1780.49 1884.15 1800.57 1908.18 1808.96 1938.63C1810.71 1945 1811.08 1949.19 1811.12 1963.31C1811.15 1973.56 1810.65 1982.69 1809.88 1986.31C1803.49 2016.13 1786.61 2042.1 1762.54 2059.15C1750.5 2067.68 1715.96 2083.44 1686.91 2093.65C1616.56 2118.39 1551.66 2127.88 1462.22 2126.49C1369.46 2125.04 1311.13 2112.65 1252.14 2081.86C1170.89 2039.44 1118.72 1976.88 1088.82 1886.02C1073.86 1840.55 1065.37 1794.04 1059.56 1725.81C1058.75 1716.23 1058.3 1635.5 1058.03 1448.06L1057.64 1183.81L954.929 1183.8C843.786 1183.8 843.044 1183.77 826.442 1178.35C797.895 1169.03 772.746 1146.53 759.237 1118.23C737.906 1073.54 746.968 1023.73 783.321 985.855C801.629 966.781 823.675 954.397 847.221 949.962C850.303 949.382 997.643 949.083 1231.22 949.183L1610.22 949.346L1617.76 951.545Z" fill="#3875C5"/>
</svg>
