<?xml version="1.0" encoding="UTF-8" standalone="no"?>
<svg
   width="24"
   height="24"
   viewBox="0 0 24 24"
   version="1.1"
   id="svg1"
   sodipodi:docname="testrail.svg"
   inkscape:version="1.4.2 (f4327f4, 2025-05-13)"
   xmlns:inkscape="http://www.inkscape.org/namespaces/inkscape"
   xmlns:sodipodi="http://sodipodi.sourceforge.net/DTD/sodipodi-0.dtd"
   xmlns="http://www.w3.org/2000/svg"
   xmlns:svg="http://www.w3.org/2000/svg">
  <defs
     id="defs1" />
  <sodipodi:namedview
     id="namedview1"
     pagecolor="#ffffff"
     bordercolor="#111111"
     borderopacity="1"
     inkscape:showpageshadow="0"
     inkscape:pageopacity="0"
     inkscape:pagecheckerboard="1"
     inkscape:deskcolor="#d1d1d1"
     inkscape:zoom="48.833333"
     inkscape:cx="12"
     inkscape:cy="12"
     inkscape:window-width="2400"
     inkscape:window-height="1421"
     inkscape:window-x="-9"
     inkscape:window-y="-9"
     inkscape:window-maximized="1"
     inkscape:current-layer="svg1" />
  <path
     fill="currentColor"
     d="M7.27 23.896L4.5 21.124a.35.35 0 0 1 0-.5l2.772-2.77a.35.35 0 0 1 .5 0l2.772 2.772a.35.35 0 0 1 0 .5l-2.772 2.77a.35.35 0 0 1-.5 0zm4.48-4.48l-2.772-2.772a.35.35 0 0 1 0-.498l2.772-2.772a.35.35 0 0 1 .5 0l2.77 2.772a.35.35 0 0 1 0 .5l-2.77 2.77a.35.35 0 0 1-.499 0zm4.48-4.48l-2.77-2.772a.35.35 0 0 1 0-.498l2.771-2.772a.35.35 0 0 1 .5 0l2.77 2.772a.35.35 0 0 1 0 .498l-2.772 2.772a.35.35 0 0 1-.5 0h.002zm-8.876.084l-2.772-2.77a.35.35 0 0 1 0-.499l2.772-2.773a.35.35 0 0 1 .5 0l2.772 2.772a.35.35 0 0 1 0 .498l-2.772 2.774a.35.35 0 0 1-.5 0zm4.48-4.48L9.062 7.77a.35.35 0 0 1 0-.5l2.772-2.772a.35.35 0 0 1 .5 0l2.77 2.772a.35.35 0 0 1 0 .498l-2.77 2.772a.35.35 0 0 1-.499 0v-.002v.001zM7.44 6.15L4.666 3.37a.35.35 0 0 1 0-.5L7.44.104a.35.35 0 0 1 .5 0l2.772 2.772a.35.35 0 0 1 0 .5L7.938 6.142a.35.35 0 0 1-.5 0l.002.006z"
     id="path1"
     style="fill:#6bc37c;fill-opacity:1" />
</svg>
