<?xml version="1.0" encoding="UTF-8" standalone="no"?>
<svg
   role="img"
   viewBox="0 0 24 24"
   id="Testrail--Streamline-Simple-Icons"
   height="24"
   width="24"
   version="1.1"
   sodipodi:docname="Testrail--Streamline-Simple-Icons.svg"
   inkscape:version="1.4.2 (f4327f4, 2025-05-13)"
   xmlns:inkscape="http://www.inkscape.org/namespaces/inkscape"
   xmlns:sodipodi="http://sodipodi.sourceforge.net/DTD/sodipodi-0.dtd"
   xmlns="http://www.w3.org/2000/svg"
   xmlns:svg="http://www.w3.org/2000/svg">
  <defs
     id="defs1" />
  <sodipodi:namedview
     id="namedview1"
     pagecolor="#ffffff"
     bordercolor="#111111"
     borderopacity="1"
     inkscape:showpageshadow="0"
     inkscape:pageopacity="0"
     inkscape:pagecheckerboard="1"
     inkscape:deskcolor="#d1d1d1"
     inkscape:zoom="48.833333"
     inkscape:cx="11.989761"
     inkscape:cy="12"
     inkscape:window-width="2400"
     inkscape:window-height="1421"
     inkscape:window-x="-9"
     inkscape:window-y="-9"
     inkscape:window-maximized="1"
     inkscape:current-layer="Testrail--Streamline-Simple-Icons" />
  <desc
     id="desc1">
    Testrail Streamline Icon: https://streamlinehq.com
  </desc>
  <title
     id="title1">TestRail</title>
  <path
     d="M7.27 23.896 4.5 21.124a0.352 0.352 0 0 1 0 -0.5l2.772 -2.77a0.352 0.352 0 0 1 0.5 0l2.772 2.772a0.352 0.352 0 0 1 0 0.5l-2.772 2.77a0.352 0.352 0 0 1 -0.5 0H7.27zm4.48 -4.48 -2.772 -2.772a0.352 0.352 0 0 1 0 -0.498l2.772 -2.772a0.352 0.352 0 0 1 0.5 0l2.77 2.772a0.352 0.352 0 0 1 0 0.5l-2.77 2.77a0.352 0.352 0 0 1 -0.499 0zm4.48 -4.48 -2.77 -2.772a0.352 0.352 0 0 1 0 -0.498l2.771 -2.772a0.352 0.352 0 0 1 0.5 0l2.77 2.772a0.352 0.352 0 0 1 0 0.498l-2.772 2.772a0.352 0.352 0 0 1 -0.5 0h0.002zm-8.876 0.084 -2.772 -2.77a0.352 0.352 0 0 1 0 -0.499l2.772 -2.773a0.352 0.352 0 0 1 0.5 0l2.772 2.772a0.352 0.352 0 0 1 0 0.498l-2.772 2.774a0.352 0.352 0 0 1 -0.5 0v-0.002zm4.48 -4.48L9.062 7.77a0.352 0.352 0 0 1 0 -0.5l2.772 -2.772a0.352 0.352 0 0 1 0.5 0l2.77 2.772a0.352 0.352 0 0 1 0 0.498l-2.77 2.772a0.352 0.352 0 0 1 -0.499 0v-0.002zM7.44 6.15 4.666 3.37a0.352 0.352 0 0 1 0 -0.5L7.44 0.104a0.352 0.352 0 0 1 0.5 0l2.772 2.772a0.352 0.352 0 0 1 0 0.5L7.938 6.142a0.352 0.352 0 0 1 -0.5 0l0.002 0.006v0.001z"
     fill="#000000"
     stroke-width="1"
     id="path1"
     style="fill:#64c178;fill-opacity:1" />
</svg>
